<svg xmlns="http://www.w3.org/2000/svg" version="1.1" xmlns:xlink="http://www.w3.org/1999/xlink" xmlns:svgjs="http://svgjs.dev/svgjs" width="100%" height="100%" viewBox="0 0 1000 600"><rect width="1000" height="600" x="0" y="0" fill="#001529"/><g><rect width="333.3333333333333" height="333.3333333333333" rx="13.333333333333334" ry="13.333333333333334" y="220.676072070722" fill="#3c1a5b" transform="matrix(0.6298691975574207,0,0,0.6298691975574207,0,56.024701527621744)" x="198.45390319824216"/><path d="M406.34204339327397 324.0776192380282L396.8617828277648 336.1113024200356Q390.2065855826366 332.1996762841235 384.09466974527396 330.3253554273323Q377.9827539079113 328.47819864092935 370.45830641035815 328.47819864092935L370.45830641035815 328.47819864092935Q365.1884767550321 328.47819864092935 360.13595966281235 329.5375973860722Q355.11060664098085 330.62416020160333 351.2533086458453 333.0145983957718Q347.3688465803215 335.4050365899403 344.978408386153 339.2894986554642Q342.5879701919845 343.14679665059964 342.5879701919845 348.71543108019677L342.5879701919845 348.71543108019677Q342.5879701919845 354.202573298629 345.5216897939186 358.19569164570595Q348.45540939585266 362.21597406317113 353.2091217138014 365.3941702985997Q357.9356699613618 368.5723665340283 364.04758579872447 371.2616095024678Q370.1595016360871 373.9508524709074 376.51589410694424 376.93890021361807Q382.8722865778014 379.8997838859404 388.9842024151641 383.48544117719314Q395.0961182525267 387.0439343980576 399.84983057047543 391.87913892717114Q404.57637881803583 396.741507526673 407.51009841996995 403.179392208695Q410.443818021904 409.64444096110526 410.443818021904 418.44559976690743L410.443818021904 418.44559976690743Q410.443818021904 425.6712424901895 408.48800495394795 431.78315832755214Q406.5321918859919 437.8950741649148 403.08235494668054 442.7846068348049Q399.6053539369809 447.674139504695 394.7973134782556 451.3412890071126Q390.0164370899186 455.0084385095302 384.3391463787684 457.45320484447524Q378.6618556676182 459.8979711794203 372.3597913375377 461.12035434689284Q366.05772700745706 462.3427375143654 359.51118604388193 462.3427375143654L359.51118604388193 462.3427375143654Q336.72053098811637 461.96244052892945 319.7973151362189 451.5042734294423L319.7973151362189 451.5042734294423L328.7071302235742 436.8356754197719Q330.66294329153027 438.08522265763276 333.84113952695884 439.71506688092944Q337.0193357623874 441.31774703383786 340.93096189829953 442.7846068348049Q344.8425880342116 444.2514666357719 349.24316743711273 445.22937316975Q353.6437468400138 446.20727970372803 358.12581845407976 446.20727970372803L358.12581845407976 446.20727970372803Q364.2105702210541 446.20727970372803 370.0236812841457 444.6860917619844Q375.8367923472373 443.19206789062906 380.37319210207977 440.0138716552005Q384.93675592731057 436.8356754197719 387.707491106915 431.94614274988186Q390.50539035690764 427.0566100799917 390.50539035690764 420.29275655331037L390.50539035690764 420.29275655331037Q390.50539035690764 413.9363640824532 387.5716707549736 409.2098158348928Q384.6379511530395 404.4561035169441 379.8842388350908 400.6802977329734Q375.15769058753034 396.9316560193909 369.04577475016765 393.8892801359038Q362.933858912805 390.8740683228049 356.5774664419479 387.8316924393177Q350.22107397109073 384.7893165558305 344.1091581337281 381.47529996846055Q337.99724229636547 378.1612833810905 333.24352997841675 373.9508524709074Q328.5169817308563 369.74042156072426 325.58326212892223 364.3076074830686Q322.6495425269881 358.8747934054129 322.6495425269881 351.5404944005777L322.6495425269881 351.5404944005777Q322.6495425269881 342.0602338350685 326.56116866290023 334.7802629710099Q330.47279479881234 327.5002921069513 336.85635134005776 322.50210315550805Q343.26707195169143 317.5310782744531 351.3891289977867 314.9233275171784Q359.51118604388193 312.342740830292 367.90488379386 312.342740830292L367.90488379386 312.342740830292Q388.7397257816695 312.342740830292 406.34204339327397 324.0776192380282L406.34204339327397 324.0776192380282Z " fill="#fffa7e" transform="matrix(0.6298691975574207,0,0,0.6298691975574207,0,56.024701527621744)"/><path d="M658.2809460880284 408.7067326685497L658.2809460880284 349.13519154984175L671.7243423681987 347.72009720456066L671.7243423681987 426.9653805403015L658.2809460880284 426.9653805403015L658.2809460880284 415.42843080863486L653.9570466996695 422.9952547382629Q652.6991850594196 423.8600346159347 650.9499712159471 424.76412266986426Q649.2204114606036 425.68786481192274 647.0388076782953 426.4347201608211Q644.837549807858 427.18157550971944 642.2235560867138 427.67292771294206Q639.6095623655696 428.1642799161646 636.7007573224918 428.1642799161646L636.7007573224918 428.1642799161646Q631.0403799413674 428.1642799161646 626.9719836986843 426.12025475075865Q622.9035874560012 424.0565754972237 620.289593734857 420.3812610171187Q617.6756000137127 416.70594653701363 616.398084285334 411.6548458878853Q615.1205685569552 406.58409115062807 615.1205685569552 400.6485565356991L615.1205685569552 400.6485565356991L615.1205685569552 349.13519154984175L628.5639648371256 347.72009720456066L628.5639648371256 400.6485565356991Q628.5639648371256 408.2939968178427 631.6496566733634 412.55893394181487Q634.7156944214724 416.84352515391595 641.2998139446553 416.84352515391595L641.2998139446553 416.84352515391595Q643.6976126963815 416.84352515391595 646.0364491837212 416.0770157168887Q648.3752856710607 415.29085219173254 650.5765435414979 414.0919528158694Q652.7581473238064 412.89305344000627 654.7039020485678 411.4779590947252Q656.6496567733293 410.0628647494441 658.2809460880284 408.7067326685497L658.2809460880284 408.7067326685497ZM713.4696255539907 368.45516018055434L713.4696255539907 415.6446257780528L725.0655375500442 415.6446257780528Q731.5906948088402 415.6446257780528 736.3666382241638 413.4826760838734Q741.1425816394876 411.3207263896939 744.2086193875966 407.42921694017093Q747.2943112238345 403.53770749064796 748.7683678335022 398.0935250789416Q750.262078531299 392.64934266723515 750.262078531299 386.0652231440523L750.262078531299 386.0652231440523Q750.262078531299 379.1273300345492 748.9256005385334 374.0762293854209Q747.5694684576392 369.0251287362926 745.2306319702996 365.7232419306367Q742.911449571089 362.44100921310974 739.8257577348509 360.8490280746685Q736.740065898613 359.25704693622725 733.280946387926 359.25704693622725L733.280946387926 359.25704693622725Q729.8218268772389 359.25704693622725 726.8147513935164 360.141480902028Q723.8076759097942 361.02591486782865 721.2919526292944 362.3623928605941Q718.7762293487947 363.7185249414885 716.7911664477756 365.3301601680586Q714.8061035467563 366.96144948275764 713.4696255539907 368.45516018055434L713.4696255539907 368.45516018055434ZM713.4696255539907 462.34273917232866L700.0262292738204 462.34273917232866L700.0262292738204 349.13519154984175L713.4696255539907 347.72009720456066L713.4696255539907 360.1807890782858L720.1913236940759 351.1792167152477Q722.235348859482 349.9803173393846 726.0285878683603 348.9583047566816Q729.8218268772389 347.9362921739786 735.324971553332 347.9362921739786L735.324971553332 347.9362921739786Q741.2015439038742 347.9362921739786 746.370569081776 350.68786451202516Q751.5395942596776 353.45909093820063 755.391795532943 358.54949976358677Q759.2439968062081 363.6399085889729 761.4845628529031 370.8529589322806Q763.7054748114692 378.06600927558844 763.7054748114692 386.9889652861108L763.7054748114692 386.9889652861108Q763.7054748114692 395.69572632721525 760.875286120907 403.00704711116754Q758.0450974303449 410.3380219832487 752.8367640761853 415.6839339543106Q747.6480848101548 421.0298459253725 740.2581476736868 423.997613232837Q732.84855644909 426.9653805403015 723.7290595572786 426.9653805403015L723.7290595572786 426.9653805403015L713.4696255539907 426.9653805403015L713.4696255539907 462.34273917232866ZM831.4138084155436 411.04556915588927L839.1378650502029 417.8458836484901Q836.9366071797656 420.10610378331404 834.3226134586214 422.0125503318177Q831.7086197374772 423.9189968803214 828.5246574605947 425.29478304934463Q825.3406951837121 426.6902233064969 821.4688398223182 427.4174245672663Q817.6166385490528 428.1642799161646 812.8800033099869 428.1642799161646L812.8800033099869 428.1642799161646Q803.4656950962421 428.1642799161646 796.8226133086725 424.8427390223799Q790.1598774329741 421.52119812859513 785.9539025733886 415.9197830118575Q781.7479277138032 410.3380219832487 779.8021729890418 403.12497163994095Q777.8564182642801 395.91192129663324 777.8564182642801 388.05028604507163L777.8564182642801 388.05028604507163Q777.8564182642801 383.0188394840722 778.7801604063386 378.1053174518462Q779.7039025483971 373.19179541962023 781.5317327443852 368.73031741435904Q783.3792170285021 364.2688394090978 786.1307893665487 360.4559463120904Q788.9020157927243 356.64305321508306 792.5773302728292 353.8718267889076Q796.2526447529342 351.12025445086107 800.8910095513556 349.5282733124198Q805.5293743497771 347.9362921739786 811.1111353783858 347.9362921739786L811.1111353783858 347.9362921739786Q818.7565756605293 347.9362921739786 824.338336689138 350.41270727822047Q829.9397518058756 352.8891223824624 833.6150662859809 357.3506003877236Q837.2903807660857 361.7924243048559 839.0592486976873 368.0227702417185Q840.8281166292886 374.253116178581 840.8281166292886 381.81994010820904L840.8281166292886 381.81994010820904Q840.8281166292886 384.0211979786463 840.6905380123862 386.63519169979054Q840.5529593954839 389.2491854209348 840.2581480735503 391.58802190827436L840.2581480735503 391.58802190827436L791.2998145444506 391.58802190827436Q791.2998145444506 396.8946257030784 792.7542170659895 401.49368232524193Q794.2086195875283 406.0927389474055 796.8226133086725 409.53220436996367Q799.4366070298167 412.952015704393 803.1512296861797 414.8977704291545Q806.8658523425424 416.84352515391595 811.464908964706 416.84352515391595L811.464908964706 416.84352515391595Q815.9853492343539 416.84352515391595 819.3461983043965 416.1752861575332Q822.7070473744391 415.50704716115047 825.1245002142944 414.5439968428342Q827.5222989660206 413.6006006126468 829.0553178400751 412.5982421180727Q830.5686826260007 411.6155377116275 831.4138084155436 411.04556915588927L831.4138084155436 411.04556915588927ZM801.5592485477384 380.9748143186662L827.3847203491182 380.9748143186662Q827.4633367016338 380.18865079351 827.4829907897627 379.42214135648277Q827.5222989660206 378.6359778313266 827.5222989660206 377.86946839429936L827.5222989660206 377.86946839429936Q827.5222989660206 373.82072623974517 826.5985568239621 370.44022308157366Q825.6944687700325 367.04006583527325 823.8076763096576 364.52434255477357Q821.9405379374118 362.0086192742738 819.031732894334 360.59352492899274Q816.1425819393851 359.17843058371164 812.1724561373464 359.17843058371164L812.1724561373464 359.17843058371164Q807.4358208982806 359.17843058371164 804.0749718282382 360.7114494577662Q800.7141227581956 362.2248142436918 798.4145944471138 364.6029589072892Q796.115066136032 366.96144948275764 794.7392799670088 369.7916381733198Q793.3438397098564 372.621826863882 792.6362925372159 375.1768583206395L792.6362925372159 375.1768583206395L788.9609780571109 382.8812608671699L801.5592485477384 380.9748143186662ZM896.0954124477664 359.8859777563522L896.0954124477664 359.8859777563522Q893.2652237572045 359.8859777563522 890.4939973310288 361.02591486782865Q887.7424249929823 362.1461978911762 885.1873935362248 364.07229852780875Q882.6520161675962 365.97874507631246 880.3721419446433 368.51412244494105Q878.1119218098195 371.0691539016986 876.2054752613158 373.8993425922608L876.2054752613158 373.8993425922608L876.2054752613158 426.9653805403015L862.7620789811454 426.9653805403015L862.7620789811454 349.13519154984175L876.2054752613158 347.72009720456066L876.2054752613158 363.6399085889729L883.2809469877211 351.2578330677634Q884.2046891297796 350.68786451202516 885.5804752988029 350.098241868158Q886.9562614678262 349.488965136162 888.7251293994275 349.03692110919724Q890.4939973310288 348.5652229941035 892.5183684083061 348.2507575840411Q894.5230853974542 347.9362921739786 896.6457269153759 347.9362921739786L896.6457269153759 347.9362921739786Q899.8296891922582 347.9362921739786 901.9916388864376 348.5062607297168Q904.1535885806172 349.05657519732614 905.2149093395781 349.5675814886776L905.2149093395781 349.5675814886776L904.5073621669374 361.30107210163334Q903.4460414079767 360.94729851531304 901.323399890055 360.4166381358326Q899.2007583721334 359.8859777563522 896.0954124477664 359.8859777563522ZM932.8092490725592 367.2562608046912L932.8092490725592 426.9653805403015L919.3658527923888 426.9653805403015L919.3658527923888 349.13519154984175L932.8092490725592 347.72009720456066L932.8092490725592 360.6721412815084L937.1331484609179 353.10531735188033Q938.3910101011679 352.24053747420857 940.3171107378005 351.336449420279Q942.2235572863042 350.41270727822047 944.6213560380304 349.6658519293222Q947.0388088778857 348.9189965804238 949.7903812159323 348.4276443772012Q952.5419535539788 347.9362921739786 955.4507585970566 347.9362921739786L955.4507585970566 347.9362921739786Q963.3713561130048 347.9362921739786 968.3241863214887 351.78849344724375Q973.2770165299723 355.640694720509 974.7707272277692 361.6548456879536L974.7707272277692 361.6548456879536L980.1362932869599 353.380474585685Q982.612708391202 351.3954116846657 987.1528027489787 349.6658519293222Q991.6732430186266 347.9362921739786 997.5498153691688 347.9362921739786L997.5498153691688 347.9362921739786Q1002.9350355164886 347.9362921739786 1006.747928613496 349.7444682818378Q1010.5608217105032 351.532990301568 1013.0175827266164 354.93314754786843Q1015.4546896546003 358.3333047941688 1016.5749726779479 363.1485563857503Q1017.7149097894244 367.9638079773318 1017.7149097894244 373.8993425922608L1017.7149097894244 373.8993425922608L1017.7149097894244 426.9653805403015L1004.271513509254 426.9653805403015L1004.271513509254 374.60688976490127Q1004.271513509254 370.7939966678939 1003.7408531297735 367.924499801074Q1003.2101927502933 365.055002934254 1001.8933688456566 363.1092482094925Q1000.5961990291489 361.16349348473096 998.3949411587118 360.2004431664147Q996.2133373764034 359.25704693622725 992.9507587470052 359.25704693622725L992.9507587470052 359.25704693622725Q990.9067335815994 359.25704693622725 988.6661675349042 359.96459410886786Q986.445255576338 360.6721412815084 984.1850354415142 361.8317324811137Q981.9051612185613 363.01097776884797 979.7628656125107 364.52434255477357Q977.6009159183313 366.03770734069917 975.6944693698276 367.6100343910115L975.6944693698276 367.6100343910115Q975.8910102511165 369.6540595564175 975.9303184273745 371.0298457254408Q975.9696266036324 372.4056318944641 975.9696266036324 374.60688976490127L975.9696266036324 374.60688976490127L975.9696266036324 426.9653805403015L962.526230323462 426.9653805403015L962.526230323462 374.60688976490127Q962.526230323462 366.96144948275764 959.9711988667045 363.1092482094925Q957.4358214980759 359.25704693622725 950.8517019748931 359.25704693622725L950.8517019748931 359.25704693622725Q948.7290604569714 359.25704693622725 946.3312617052452 359.8859777563522Q943.9138088653899 360.5345626646061 941.5553182899214 361.6548456879536Q939.177173626324 362.79478279943004 936.9169534915002 364.24918532096893Q934.6567333566761 365.68393375437887 932.8092490725592 367.2562608046912L932.8092490725592 367.2562608046912ZM1096.2526459525247 414.2295314327717L1097.6677402978057 426.9653805403015L1082.8092496723543 426.9653805403015L1082.8092496723543 415.50704716115047L1076.166167884785 423.4276446770988Q1074.947614420793 424.35138681915726 1073.3949414586095 425.1965126087002Q1071.8422684964262 426.04163839824304 1070.2502873579847 426.7098773946257Q1068.6583062195436 427.39777047913736 1067.0663250811021 427.77119815358657Q1065.474343942661 428.1642799161646 1064.1378659498955 428.1642799161646L1064.1378659498955 428.1642799161646Q1058.8312621550917 428.1642799161646 1053.9767023872523 426.5133365133367Q1049.122142619413 424.8427390223799 1045.4861363155655 421.6194685692396Q1041.8501300117186 418.39619811609936 1039.6881803175393 413.6202547007757Q1037.5262306233599 408.844311285452 1037.5262306233599 402.6336194367184L1037.5262306233599 402.6336194367184Q1037.5262306233599 396.0494999135355 1040.1795325207618 391.19494014569625Q1042.8328344181637 386.3600344659859 1046.9798470133624 383.1367640128456Q1051.1072055204322 379.9134935597054 1056.1976143458182 378.3215124212641Q1061.3076772593336 376.72953128282296 1066.1818911153018 376.72953128282296L1066.1818911153018 376.72953128282296Q1070.210979181727 376.72953128282296 1073.2966710179649 377.1619212216588Q1076.3627087660739 377.5746570723658 1078.4853502839956 378.144625628104L1078.4853502839956 378.144625628104Q1080.9617653882374 378.77355644822893 1082.8092496723543 379.5597199733851L1082.8092496723543 379.5597199733851L1082.8092496723543 377.0833048691432Q1082.8092496723543 372.91663818581554 1082.3178974691318 369.5754432039019Q1081.8265452659093 366.2539023101171 1080.2935263918548 363.95437399903534Q1078.7801616059292 361.6548456879536 1075.910664739109 360.4559463120904Q1073.0411678722894 359.25704693622725 1068.3045326332235 359.25704693622725L1068.3045326332235 359.25704693622725Q1064.491639536216 359.25704693622725 1060.953903673013 359.7877073157077Q1057.4161678098108 360.3183676951881 1054.644941383635 360.94729851531304L1054.644941383635 360.94729851531304Q1051.4020168423658 361.7334620404692 1048.6307904161904 362.57858783001205L1048.6307904161904 362.57858783001205L1043.5403815908044 353.10531735188033Q1046.645727515171 351.6902230065993 1050.6158533172097 350.55028589512284L1050.6158533172097 350.55028589512284Q1054.01601056351 349.5675814886776 1058.6740294500605 348.7421097872637Q1063.3517024247394 347.9362921739786 1069.0120798058638 347.9362921739786L1069.0120798058638 347.9362921739786Q1077.14887229123 347.9362921739786 1082.4554760860342 350.11789595628693Q1087.7620798808384 352.3191538267242 1090.8084635408186 356.2892796287628Q1093.8548472007983 360.2397513426725 1095.0537465766615 365.80185828315234Q1096.2526459525247 371.34431113550323 1096.2526459525247 378.144625628104L1096.2526459525247 378.144625628104L1096.2526459525247 414.2295314327717ZM1082.8092496723543 407.5864496452022L1082.8092496723543 389.2491854209348Q1080.824186771335 388.9740281871301 1078.5639666365114 388.67921686519657L1078.5639666365114 388.67921686519657Q1076.6575200880075 388.48267598390754 1074.1811049837656 388.26648101448956Q1071.7046898795238 388.05028604507163 1069.0120798058638 388.05028604507163L1069.0120798058638 388.05028604507163Q1065.0419540038251 388.05028604507163 1061.7597212862984 388.8364495702278Q1058.4774885687712 389.60295900725504 1056.0600357289163 391.33251876259857Q1053.6622369771899 393.08173260607106 1052.3061048962954 395.8333049441176Q1050.9696269035298 398.58487728216414 1050.9696269035298 402.5550030842027L1050.9696269035298 402.5550030842027Q1050.9696269035298 405.7389653610852 1052.0309476624907 408.35295908222946Q1053.0922684214515 410.96695280337366 1054.9397527055685 412.89305344000627Q1056.7675829015566 414.7994999885099 1059.2833061820565 415.82151257121296Q1061.799029462556 416.84352515391595 1064.688180417505 416.84352515391595L1064.688180417505 416.84352515391595Q1066.0443124983994 416.84352515391595 1067.557677284325 416.45044339133784Q1069.0906961583796 416.0770157168887 1070.6040609443053 415.42843080863486Q1072.1174257302305 414.7994999885099 1073.650444604285 413.95437419896706Q1075.1638093902106 413.0895943212953 1076.519941471105 412.24446853175243L1076.519941471105 412.24446853175243Q1079.7039037479876 410.2004433663464 1082.8092496723543 407.5864496452022L1082.8092496723543 407.5864496452022ZM1154.3501304615647 359.8859777563522L1154.3501304615647 359.8859777563522Q1151.5199417710028 359.8859777563522 1148.7487153448274 361.02591486782865Q1145.9971430067808 362.1461978911762 1143.4421115500231 364.07229852780875Q1140.9067341813948 365.97874507631246 1138.6268599584419 368.51412244494105Q1136.3666398236178 371.0691539016986 1134.4601932751139 373.8993425922608L1134.4601932751139 373.8993425922608L1134.4601932751139 426.9653805403015L1121.016796994944 426.9653805403015L1121.016796994944 349.13519154984175L1134.4601932751139 347.72009720456066L1134.4601932751139 363.6399085889729L1141.5356650015196 351.2578330677634Q1142.4594071435781 350.68786451202516 1143.8351933126014 350.098241868158Q1145.2109794816247 349.488965136162 1146.9798474132258 349.03692110919724Q1148.7487153448274 348.5652229941035 1150.7730864221044 348.2507575840411Q1152.7778034112525 347.9362921739786 1154.9004449291742 347.9362921739786L1154.9004449291742 347.9362921739786Q1158.0844072060568 347.9362921739786 1160.2463569002362 348.5062607297168Q1162.4083065944155 349.05657519732614 1163.4696273533764 349.5675814886776L1163.4696273533764 349.5675814886776L1162.7620801807357 361.30107210163334Q1161.7007594217748 360.94729851531304 1159.5781179038536 360.4166381358326Q1157.455476385932 359.8859777563522 1154.3501304615647 359.8859777563522ZM1227.5812628298613 356.8395940963721L1220.5647533678425 364.838807964836Q1217.813181029796 362.3623928605941 1214.0199420209174 360.8097198984107Q1210.2463571001676 359.25704693622725 1206.1976149456136 359.25704693622725L1206.1976149456136 359.25704693622725Q1200.2620803306845 359.25704693622725 1196.095413647357 361.47795889479346Q1191.9090928759006 363.7185249414885 1189.334407331014 367.5314180384959Q1186.7400676979987 371.34431113550323 1185.5411683221355 376.41506587276047Q1184.3422689462723 381.4661665218888 1184.3422689462723 387.06758163862645L1184.3422689462723 387.06758163862645Q1184.3422689462723 392.8655376366531 1185.4428978814908 398.1328332551994Q1186.5435268167098 403.40012887374564 1189.157520537854 407.42921694017093Q1191.7715142589982 411.4779590947252 1196.1150677354858 413.83644967019364Q1200.4782753001027 416.214594333791 1206.9837784707697 416.214594333791L1206.9837784707697 416.214594333791Q1212.4279608824763 416.214594333791 1216.221199891355 414.9370786054123Q1219.9947848121042 413.6595628770335 1222.0584640656389 412.24446853175243L1222.0584640656389 412.24446853175243L1227.1488728910253 422.2287453012356Q1223.1787470889867 424.9213553748955 1217.9114514704402 426.5329906014656Q1212.644155851894 428.1642799161646 1206.0010740643247 428.1642799161646L1206.0010740643247 428.1642799161646Q1197.1567344063178 428.1642799161646 1190.4939985306191 424.66585222921975Q1183.8509167430498 421.16742454227483 1179.4287469140463 415.33016036799035Q1175.0065770850429 409.49289619370586 1172.766011038348 401.88676408782004Q1170.5450990797817 394.28063198193416 1170.5450990797817 386.143839496568L1170.5450990797817 386.143839496568Q1170.5450990797817 378.77355644822893 1172.707048773961 371.87497151498366Q1174.8689984681405 364.9763865817384 1179.291168297144 359.66978278693426Q1183.7133381261474 354.3631789921302 1190.4546903543614 351.1595626271189Q1197.2156966707043 347.9362921739786 1206.3548476506448 347.9362921739786L1206.3548476506448 347.9362921739786Q1212.8603508213118 347.9362921739786 1217.990067822956 349.9410091631268Q1223.1197848246002 351.96538024040393 1227.5812628298613 356.8395940963721L1227.5812628298613 356.8395940963721ZM1261.8186843504118 368.0227702417185L1261.8186843504118 426.9653805403015L1248.3752880702418 426.9653805403015L1248.3752880702418 327.90877637062545L1246.9601937249604 313.75783291781454L1261.8186843504118 312.3427385725335L1261.8186843504118 359.7483991394499L1268.1079925516615 351.61160665408363Q1270.879218977837 350.0589336919002 1274.6921120748443 348.99761293293943Q1278.5246592599806 347.9362921739786 1283.0450995296283 347.9362921739786L1283.0450995296283 347.9362921739786Q1293.6583071192363 347.9362921739786 1299.3186845003606 355.01176390038404Q1304.979061881485 362.0872356267895 1304.979061881485 375.31443693754187L1304.979061881485 375.31443693754187L1304.979061881485 426.9653805403015L1291.535665601315 426.9653805403015L1291.535665601315 376.80814763533857Q1291.535665601315 372.0518583081438 1290.7298479880296 368.73031741435904Q1289.9043762866158 365.40877652057424 1288.4303196769479 363.2861350026526Q1286.9366089791515 361.16349348473096 1284.735351108714 360.2004431664147Q1282.5537473264058 359.25704693622725 1279.7825209002303 359.25704693622725L1279.7825209002303 359.25704693622725Q1277.0309485621838 359.25704693622725 1274.4169548410396 359.92528593261005Q1271.8029611198954 360.59352492899274 1269.4641246325555 361.772770216727Q1267.125288145216 362.93236141633236 1265.1795334204544 364.52434255477357Q1263.2337786956932 366.1163236932148 1261.8186843504118 368.0227702417185L1261.8186843504118 368.0227702417185ZM1379.762867211965 411.04556915588927L1387.486923846624 417.8458836484901Q1385.285665976187 420.10610378331404 1382.6716722550427 422.0125503318177Q1380.0576785338985 423.9189968803214 1376.873716257016 425.29478304934463Q1373.6897539801334 426.6902233064969 1369.8178986187395 427.4174245672663Q1365.9656973454744 428.1642799161646 1361.2290621064085 428.1642799161646L1361.2290621064085 428.1642799161646Q1351.8147538926632 428.1642799161646 1345.1716721050939 424.8427390223799Q1338.5089362293952 421.52119812859513 1334.30296136981 415.9197830118575Q1330.0969865102243 410.3380219832487 1328.151231785463 403.12497163994095Q1326.2054770607015 395.91192129663324 1326.2054770607015 388.05028604507163L1326.2054770607015 388.05028604507163Q1326.2054770607015 383.0188394840722 1327.12921920276 378.1053174518462Q1328.0529613448184 373.19179541962023 1329.8807915408065 368.73031741435904Q1331.7282758249235 364.2688394090978 1334.47984816297 360.4559463120904Q1337.2510745891454 356.64305321508306 1340.9263890692505 353.8718267889076Q1344.6017035493555 351.12025445086107 1349.2400683477767 349.5282733124198Q1353.8784331461984 347.9362921739786 1359.460194174807 347.9362921739786L1359.460194174807 347.9362921739786Q1367.1056344569506 347.9362921739786 1372.6873954855591 350.41270727822047Q1378.288810602297 352.8891223824624 1381.964125082402 357.3506003877236Q1385.639439562507 361.7924243048559 1387.4083074941086 368.0227702417185Q1389.1771754257097 374.253116178581 1389.1771754257097 381.81994010820904L1389.1771754257097 381.81994010820904Q1389.1771754257097 384.0211979786463 1389.0395968088073 386.63519169979054Q1388.902018191905 389.2491854209348 1388.6072068699718 391.58802190827436L1388.6072068699718 391.58802190827436L1339.648873340872 391.58802190827436Q1339.648873340872 396.8946257030784 1341.1032758624106 401.49368232524193Q1342.5576783839497 406.0927389474055 1345.1716721050939 409.53220436996367Q1347.785665826238 412.952015704393 1351.5002884826008 414.8977704291545Q1355.2149111389635 416.84352515391595 1359.8139677611275 416.84352515391595L1359.8139677611275 416.84352515391595Q1364.3344080307752 416.84352515391595 1367.6952571008178 416.1752861575332Q1371.0561061708604 415.50704716115047 1373.4735590107157 414.5439968428342Q1375.8713577624417 413.6006006126468 1377.4043766364962 412.5982421180727Q1378.9177414224218 411.6155377116275 1379.762867211965 411.04556915588927L1379.762867211965 411.04556915588927ZM1349.9083073441598 380.9748143186662L1375.7337791455393 380.9748143186662Q1375.8123954980551 380.18865079351 1375.832049586184 379.42214135648277Q1375.8713577624417 378.6359778313266 1375.8713577624417 377.86946839429936L1375.8713577624417 377.86946839429936Q1375.8713577624417 373.82072623974517 1374.9476156203832 370.44022308157366Q1374.0435275664536 367.04006583527325 1372.156735106079 364.52434255477357Q1370.2895967338332 362.0086192742738 1367.3807916907554 360.59352492899274Q1364.4916407358064 359.17843058371164 1360.5215149337678 359.17843058371164L1360.5215149337678 359.17843058371164Q1355.7848796947019 359.17843058371164 1352.4240306246593 360.7114494577662Q1349.0631815546167 362.2248142436918 1346.763653243535 364.6029589072892Q1344.4641249324532 366.96144948275764 1343.0883387634299 369.7916381733198Q1341.6928985062777 372.621826863882 1340.985351333637 375.1768583206395L1340.985351333637 375.1768583206395L1337.310036853532 382.8812608671699L1349.9083073441598 380.9748143186662ZM1350.26208093048 342.0597198234363L1361.5828356927286 320.83330464422L1377.856420663461 319.4182102989389L1360.875288520088 342.0597198234363L1350.26208093048 342.0597198234363Z " fill="#c59ee9" transform="matrix(0.6298691975574207,0,0,0.6298691975574207,0,56.024701527621744)"/></g></svg>